<mxfile host="app.diagrams.net" modified="2022-07-11T03:37:58.182Z" agent="5.0 (Macintosh; Intel Mac OS X 10_15_7) AppleWebKit/537.36 (KHTML, like Gecko) Chrome/103.0.0.0 Safari/537.36" etag="VDs_Gcb-rH4JwlBMKOnN" version="20.0.2" type="github">
  <diagram id="WekRwSUJFw3CHIytdqVz" name="Page-1">
    <mxGraphModel dx="1426" dy="1320" grid="1" gridSize="10" guides="1" tooltips="1" connect="1" arrows="1" fold="1" page="1" pageScale="1" pageWidth="1654" pageHeight="1169" math="0" shadow="0">
      <root>
        <mxCell id="0" />
        <mxCell id="1" parent="0" />
        <mxCell id="4HBjExBqrGDEFzpqiwae-7" value="raw data" style="edgeStyle=orthogonalEdgeStyle;rounded=0;orthogonalLoop=1;jettySize=auto;html=1;exitX=1;exitY=0.5;exitDx=0;exitDy=0;entryX=0;entryY=0.5;entryDx=0;entryDy=0;fontSize=18;" edge="1" parent="1" source="4HBjExBqrGDEFzpqiwae-1" target="4HBjExBqrGDEFzpqiwae-2">
          <mxGeometry relative="1" as="geometry" />
        </mxCell>
        <mxCell id="4HBjExBqrGDEFzpqiwae-1" value="&lt;font style=&quot;font-size: 18px;&quot;&gt;Crawler Service&lt;br&gt;&lt;/font&gt;" style="rounded=0;whiteSpace=wrap;html=1;" vertex="1" parent="1">
          <mxGeometry x="290" y="510" width="120" height="60" as="geometry" />
        </mxCell>
        <mxCell id="4HBjExBqrGDEFzpqiwae-8" style="edgeStyle=orthogonalEdgeStyle;rounded=0;orthogonalLoop=1;jettySize=auto;html=1;exitX=1;exitY=0.5;exitDx=0;exitDy=0;entryX=0;entryY=0.5;entryDx=0;entryDy=0;entryPerimeter=0;fontSize=18;" edge="1" parent="1" source="4HBjExBqrGDEFzpqiwae-2" target="4HBjExBqrGDEFzpqiwae-4">
          <mxGeometry relative="1" as="geometry" />
        </mxCell>
        <mxCell id="4HBjExBqrGDEFzpqiwae-9" value="write" style="edgeLabel;html=1;align=center;verticalAlign=middle;resizable=0;points=[];fontSize=18;" vertex="1" connectable="0" parent="4HBjExBqrGDEFzpqiwae-8">
          <mxGeometry x="-0.2625" y="-1" relative="1" as="geometry">
            <mxPoint as="offset" />
          </mxGeometry>
        </mxCell>
        <mxCell id="4HBjExBqrGDEFzpqiwae-2" value="&lt;font style=&quot;font-size: 18px;&quot;&gt;Loki_cleanser Service&lt;/font&gt;" style="rounded=0;whiteSpace=wrap;html=1;" vertex="1" parent="1">
          <mxGeometry x="540" y="510" width="120" height="60" as="geometry" />
        </mxCell>
        <mxCell id="4HBjExBqrGDEFzpqiwae-12" value="API" style="edgeStyle=orthogonalEdgeStyle;rounded=0;orthogonalLoop=1;jettySize=auto;html=1;exitX=1;exitY=0.5;exitDx=0;exitDy=0;entryX=0;entryY=0.5;entryDx=0;entryDy=0;entryPerimeter=0;fontSize=18;" edge="1" parent="1" source="4HBjExBqrGDEFzpqiwae-3" target="4HBjExBqrGDEFzpqiwae-6">
          <mxGeometry relative="1" as="geometry" />
        </mxCell>
        <mxCell id="4HBjExBqrGDEFzpqiwae-19" style="edgeStyle=orthogonalEdgeStyle;rounded=0;orthogonalLoop=1;jettySize=auto;html=1;entryX=0.5;entryY=0;entryDx=0;entryDy=0;fontSize=14;" edge="1" parent="1" source="4HBjExBqrGDEFzpqiwae-3" target="4HBjExBqrGDEFzpqiwae-17">
          <mxGeometry relative="1" as="geometry" />
        </mxCell>
        <mxCell id="4HBjExBqrGDEFzpqiwae-3" value="&lt;font style=&quot;font-size: 18px;&quot;&gt;Statistics Service&lt;/font&gt;" style="rounded=0;whiteSpace=wrap;html=1;fillColor=#fff2cc;strokeColor=#d6b656;" vertex="1" parent="1">
          <mxGeometry x="860" y="510" width="120" height="60" as="geometry" />
        </mxCell>
        <mxCell id="4HBjExBqrGDEFzpqiwae-10" style="edgeStyle=orthogonalEdgeStyle;rounded=0;orthogonalLoop=1;jettySize=auto;html=1;exitX=1;exitY=0.5;exitDx=0;exitDy=0;exitPerimeter=0;entryX=0;entryY=0.5;entryDx=0;entryDy=0;fontSize=18;" edge="1" parent="1" source="4HBjExBqrGDEFzpqiwae-4" target="4HBjExBqrGDEFzpqiwae-3">
          <mxGeometry relative="1" as="geometry" />
        </mxCell>
        <mxCell id="4HBjExBqrGDEFzpqiwae-11" value="read" style="edgeLabel;html=1;align=center;verticalAlign=middle;resizable=0;points=[];fontSize=18;" vertex="1" connectable="0" parent="4HBjExBqrGDEFzpqiwae-10">
          <mxGeometry x="0.2875" relative="1" as="geometry">
            <mxPoint as="offset" />
          </mxGeometry>
        </mxCell>
        <mxCell id="4HBjExBqrGDEFzpqiwae-4" value="oss" style="shape=cylinder3;whiteSpace=wrap;html=1;boundedLbl=1;backgroundOutline=1;size=15;fontSize=18;" vertex="1" parent="1">
          <mxGeometry x="730" y="410" width="60" height="80" as="geometry" />
        </mxCell>
        <mxCell id="4HBjExBqrGDEFzpqiwae-6" value="" style="verticalLabelPosition=bottom;html=1;verticalAlign=top;align=center;strokeColor=none;fillColor=#00BEF2;shape=mxgraph.azure.website_generic;pointerEvents=1;fontSize=18;" vertex="1" parent="1">
          <mxGeometry x="1110" y="519" width="50" height="42.5" as="geometry" />
        </mxCell>
        <mxCell id="4HBjExBqrGDEFzpqiwae-17" value="&lt;font style=&quot;font-size: 14px;&quot;&gt;/performance_matrix&lt;/font&gt;" style="rounded=0;whiteSpace=wrap;html=1;fontSize=18;" vertex="1" parent="1">
          <mxGeometry x="821.5" y="630" width="197" height="60" as="geometry" />
        </mxCell>
        <mxCell id="4HBjExBqrGDEFzpqiwae-48" value="" style="shape=image;verticalLabelPosition=bottom;labelBackgroundColor=default;verticalAlign=top;aspect=fixed;imageAspect=0;image=data:image/png,iVBORw0KGgoAAAANSUhEUgAAAxwAAABlCAYAAADHwuWcAAABR2lDQ1BJQ0MgUHJvZmlsZQAAKJFjYGASSSwoyGFhYGDIzSspCnJ3UoiIjFJgf8bAzsANhCIMconJxQWOAQE+QCUMMBoVfLvGwAiiL+uCzIoytuSctGqjgegzn611dY2SmOpRAFdKanEykP4DxOnJBUUlDAyMKUC2cnlJAYjdAWSLFAEdBWTPAbHTIewNIHYShH0ErCYkyBnIvgFkCyRnJALNYHwBZOskIYmnI7Gh9oIAr4urj49CqLGFoYVLOAH3kgxKUitKQLRzfkFlUWZ6RomCIzCUUhU885L1dBSMDIyMGBhAYQ5R/TkQHJaMYmcQYvmLGBgsvjIwME9AiCXNZGDY3srAIHELIaaygIGBv4WBYdv5gsSiRLgDGL+xFKcZG0HYPE4MDKz3/v//rMbAwD6ZgeHvhP//fy/6///vYqD5dxgYDuQBAJXmX5Y8qea3AAAAVmVYSWZNTQAqAAAACAABh2kABAAAAAEAAAAaAAAAAAADkoYABwAAABIAAABEoAIABAAAAAEAAAMcoAMABAAAAAEAAABlAAAAAEFTQ0lJAAAAU2NyZWVuc2hvdIxEARsAAAHWaVRYdFhNTDpjb20uYWRvYmUueG1wAAAAAAA8eDp4bXBtZXRhIHhtbG5zOng9ImFkb2JlOm5zOm1ldGEvIiB4OnhtcHRrPSJYTVAgQ29yZSA2LjAuMCI+CiAgIDxyZGY6UkRGIHhtbG5zOnJkZj0iaHR0cDovL3d3dy53My5vcmcvMTk5OS8wMi8yMi1yZGYtc3ludGF4LW5zIyI+CiAgICAgIDxyZGY6RGVzY3JpcHRpb24gcmRmOmFib3V0PSIiCiAgICAgICAgICAgIHhtbG5zOmV4aWY9Imh0dHA6Ly9ucy5hZG9iZS5jb20vZXhpZi8xLjAvIj4KICAgICAgICAgPGV4aWY6UGl4ZWxZRGltZW5zaW9uPjEwMTwvZXhpZjpQaXhlbFlEaW1lbnNpb24+CiAgICAgICAgIDxleGlmOlBpeGVsWERpbWVuc2lvbj43OTY8L2V4aWY6UGl4ZWxYRGltZW5zaW9uPgogICAgICAgICA8ZXhpZjpVc2VyQ29tbWVudD5TY3JlZW5zaG90PC9leGlmOlVzZXJDb21tZW50PgogICAgICA8L3JkZjpEZXNjcmlwdGlvbj4KICAgPC9yZGY6UkRGPgo8L3g6eG1wbWV0YT4Ko+9zjQAAPOlJREFUeAHtnQWYJNXVhu/i7q6Lu+uPLh48hOAE96DBgrt7cF8keIK7BEJIcFjc3YIT3P99TzidO7XVVdXdVT3TPd95npmqruvftWO3asAUU0zxcxAJASEgBISAEBACQkAICAEhIAQqQGC4CvJUlkJACAgBISAEhIAQEAJCQAgIAUNAAocGghAQAkJACAgBISAEhIAQEAKVISCBozJolbEQEAJCQAgIASEgBISAEBACEjg0BoSAEBACQkAICAEhIASEgBCoDAEJHJVBq4yFgBAQAkJACAgBISAEhIAQkMChMSAEhIAQEAJCQAgIASEgBIRAZQhI4KgMWmUsBISAEBACQkAICAEhIASEgAQOjQEhIASEgBAQAkJACAgBISAEKkNghLycL7/88rwoChcCQkAICAEhIASEgBAQAkKgHyOwzjrr1G19rsBByqwM6uasgMoRQBhU31QOc6kFqM9KhbPhzIR/w5C1lEB4twTfMIm7Bc9uaccwHVTSg27Gp5vbVrT7uxUD2pVFcqnKQkdhQkAICAEhIASEgBAQAkJACLSEgASOluBTYiEgBISAEBACQkAICAEhIASyEJDAkYWOwoSAEBACQkAICAEhIASEgBBoCQEJHC3Bp8RCQAgIASEgBISAEBACQkAIZCEggSMLHYUJASEgBISAEBACQkAICAEh0BICEjhagk+JhYAQEAJCQAgIASEgBISAEMhCQAJHFjpdFjbPPPOExRdfvMtapeY4AsMNN1xYYYUVwowzzuiPdBUCXYXA3HPPrTWsxR4Vhi0C2EXJtWd0UWd2QFMKfYejA9rRdBXPOuusMMYYY4Srrroq/PWvf206n76ecMIJJwx//OMfrZpffPFFeOyxx0qp8sUXXxxYtE466aTwwAMPlJJnX8ikE8fFKqusEjbYYIPw008/hY022ih8//33fQFK1UEIlILARBNNFPbaay/L6+uvvw4PP/xwKfl2cyazzTZb2GmnncKYY44Zfvzxx/CHP/xBGLa5w3tzL8nbn1vZM+ApTjzxxDBgwICwxx57hLfeeqsSZIcffviw9957myJtxBFHDDfffHO44IILKikrL9M8PPPSd0r4tttua4qdf//732GXXXYprdr93sIx+uijBwY016J07rnnhvPOOy+gKeoU+s9//mMMKMzoe++9V1q1WQDAb6SRRiotz76QUTPjorfr/frrr4eff/45fPXVVxI2erszVH7pCHzyySe1Nezdd98tPf9uzHDXXXcNY489tjXtnXfeCWViuPHGG9s+eMghh3QjdKW1qR17Cd4L8CTnnHNOj3rn7c+t7BkjjzxyGGGEEWz/hweoipZffvkw++yzG48BH/P+++9XVVQt32bxrGVQ8k2zc61eO/Kqh4KiUb44L0/CK7dwUGk0K05MADTi3377rT8a5jraaKMZ0zRMwC8PRhlllPDdd9+ZJrdenKznlA/jnUdYPrAGJInn0Pjjj58Mst+jjjpqQAPXlwi80XpDaW3PwxzMWGBaaVfVuOS1Ia/8ouMiL5/e6vchQ4aE3/3ud3WFDeYeczGt/4vWuShGyXlP/mXiVrQeRduVF6/d5VGfRspMwztvPuS12cOpB9TKuPG8il4Zq5QX7x1Y7LLWsLy8i+KZ1l6etbr+ef2K1sPjt3JlDEBoZm+88Ua7z8MwOZacaf3mm28svf+beOKJTVE32WST+aPKr6wh7GX1xiLYUt9W+Iu0sZfWMPiQJCYer519TJkIlUWUpsk1OG/PoB1QjHe72+YuwmC91VZbWX3if8k2xWGN3vvYbxbPRssrGj9vrtUbs3ntoC9ZI9L43KJ1ayReqQIHUhHmQ+if//xn+L//+z+TktZbb72A6W6ttdaqacIRGC666KJw22231eqLNgarAdpyNLWYcw466KDw8ccfWxz809dee21zgSL8ww8/DEceeWRhU97UU08d9txzzzDeeONZ/tQxSYRhtp9iiilqGz6mwgMOOCCQfv/9968l2XLLLc2FZbPNNrNn22+/fVhooYWs/myUr776ajjwwAPrMoC1jNpwg5B09tlnW0mHHnpoePrpp20D9XahqWBDf/HFFwMaK19gZp555rDzzjuHccYZx0ynxLnuuuvCFVdckVrrgw8+OMwwwwzhhx9+CLvvvnv49NNPDYOppprKxgIbwb333mt1cXMuGREXnJkAF154ocW98847h9HYJAulXbRh8skntzTg/swzz4TDDz+81oZtttnGxiIbBO1CQwIGH3zwgWVXZFwQsd39y1xiTt1xxx0Bq9pKK61kAgV1YeyxSBx//PFh0kknDY888khg82AsgsGGG25o43jOOees4cqYJuzJJ58MRx11VA0f8ssiFjP6deDAgdY/b7/9tm2000wzTXjhhRcMf+YMZaFFhTHD3P7444+HI444ImThT52OOeYYKx7XD/pmyimnDEcffbQ923HHHa0sX1cYE4MGDTKm4ssvvwx/+ctfaoxUVhuaDaN+uCJOMMEElsX9999v2jY29+uvv97GN0KeY04k7zfcFmkHuLgr0Oabb56pTCH9csstF1gzKYN5hAvByiuvTJC5xNDvjkdynaWvsuY0c3v66acPzz33nK2t5OnPnn32Wetn70v6mfnC/OD6xhtvWN71mCzyapVWW221sPrqq9saT160FXfNJ554wjZG5gF02GGHhaeeesru8/7l4Un/bLLJJtaHlDPvvPMGxhZ9RdtZm1AusTbR9rvuuqvm0uHYZeEZjweYJ+Y06+hDDz1kbcurfzPh888/f2A/xd0FYoyuueaatobFGKLhrjeWFl54YWPwYOgg6sx8u/rqq8Oxxx5r85TnrMGXXnppuPLKKytzS6Z/ll12WZv3lEn/nHDCCbaW8XvaaacNu+22m+3ttJlxA39x9913E2x1zNsnGCfrrLOO9Q/8Bdr0wYMHGy8T8zasQUsttZRp9z/66CMT5pyXKLqXWKVK+rfpppva2T3Pjr7wddmfzTHHHGHrrbc2/FhT2GNvvfVWW2viPQMeq95cAP/111/f1iXGwu233+7ZV3bFZWuSSSax/Nm/aRtjEBf4MveVeB0FF6wqTo3g6WnKvGbNtawxmzUusBixt4411li2RrB/4RLPWlsl/Vd8LakEFmT/W2yxxYwBZOLCgOJbjiCBhpwBzz0Lum/kLBYLLrigPWcws2gw0JwZWWSRRYyZYnFjMSEPmBoYGkDLIzZihBc2DvLmjzrCaMe07777BphjiHJoD79hOmgLdXOik1zj7z5vtOuzzz6z/NnYYez6CnnfeJuPO+64MN100xkGCIBgNOussxqm1BkmHgFr3HHHtSaAOXHYuBjoSWIBmGmmmaztp5xyirluMVlgTMEbXGBGWbiYDHcP3Qy8Tssss4xlh8BJGTyH0c4i4sBwuzBDG9BQsLgiWEL0C5sDi1U8rmg7Y6nouOiN/kUgoo30CbTAAgvU8Fp00UXtGcIGcRAiaCP33r9oLvgNPjDOjF/wAeMllljC0hf5x7xhQycvGE/GBeOG386MeFmUw7ykLOLm4c94IB/+qBuUfObhXBl33j4YchipWWaZpUgzGo5DfRC0aA/jF0KJAvNBXWg7TCP3jCMwYi1Cq8Qz5gIE88dv1grc3bIIhpR10bWVpFt11VUtPffUiav/xess+ebNafIlrWu+SZN85n2J4AcDRV+SZuBQgRM8qiLWAPYJ5iVrK+OHe/y3WYO8zVx9DOTVpQie9CN50ofzzTef9TXlc2YEwcb7n/WDOYbgTz2hJHZpz3xekjdjB6Is9jQYuCqIsZbcqxCWkhjGv+OxxD4GQwI2rNso96jzuuuua/Pt888/t/6h7r4vZlkVWmkjOK244opWPgoN2gHujAvqDw/BuGRvZ49CGGHcsB/hUkKcvH2CMrbYYgvrH8YdbWIegwECaYwTaxC/Icp0hSP4FOExWsEiLS24M16d6HcwiGnJJZesra/MHfZf1hIfmz6f6s0F1jbwAXeI+MyDqolxRl9APs4Y22XvK/HYZ3w1i2cVeNSba3ljtt64YOwydxjftJP2MhbID2VPlVSqwBFXlHMCbJwsUDAQf/vb30wDsslQTQXPfRDRSIjFGEJTi3Z2n332sTgsHGx6v/3tby0cLRvpGfxMLBbGpZde2sKy/iHRMZkgNPTU65ZbbhkmCRou6kr5lOMHoakDWiw3R5MQn8nf//73loe//QmtJ2Y/BBcI5gyrSV8jGEY2Uoh2wLhdc8019hvGgsHIIs9AZAFm4WWTxWoDITTERPth7KHzzz/fcIvL2G+//QwXsIeIi0Dn50nYGCAWRogF87XXXrP7ev9gJqgndNppp1kbrr32WvvNYUnI+wWGnHHlFirGJAxO0XHh+bSzf2FmIcypEIKbE8KHCxs8w2pUj+i/HXbYoTZniFdkzhCPxYl+hLCKoXkHQ5+/FpD4d/rpp9v8Qth23Orhn0ia+xMhjLHKgkm7EARgyKsgxpBvsDfddJO1if6Pifo4o4VmnI3LibUL5t0Fj5deesmD6l6x+tEm2sZBTPB++eWX68aP11nGR96crptRnQA0XjDFWA0h1kEYqyrI+xEGl7nKWgu24MFa1Aw1iifziPayhsNQ0VbGOtYC6uRrUqwBLVovmGHmIXugM4SDBg0qmryheMzVeK9iTd5uu+0y84jHEkoOF7KxJLDP/fnPfzZrG3jAWPuLR2gLZbnLVmYhTQQyryD2ewQL+ob5iCYahpk+pp8Ihy9AAMByQ/1/85vf2GHjvH3C+Qvawj5HH6HAIg8P86o/+uijNi+df0CIZI8vupd4PmVdL7nkkpr3AnnSF24h9jLwXGAtueyyy+wR7cpT1CTnAmnoe6x6YPTmm2969pVd4Rt8H0RZ4+Os7H0lHvtV4dksSPXmmo/LemO2XjvwVvn73/9uCl14XM6H4IkC+Vxrtq556SoTOC6//HJjKKkATDzmepjKM88805hDBi+EEIBW1DUGvmixOSMUYOJk8UDbBKGtxR+Vw1G+8THR88gZUCYMCyfEIszvmDDVkS9v86AMXKQgGO96BOPn4bg+UD8GiRPMYV8jrxPtZ+GGaLsT5nQYegg3Fz+ohaWHPnELgsefa6657JZDiZ6fl0HAgUNdy8CFzQGC4YcZwz0BgqlmDPgiyKKeRz45YM7uuecei84ko34wB3G/3HDDDRaOqdk3ezRXRcZFnE87+xfBF2I8Yu1jrqDho8/QOKE5h9CAZGnO6RP6DwEPNxnIN2D7kfHPmWWiuBvd888/bxrPtGQwi1iuoBi3evhbxAb+4c4BYwET7m9FYU2oguKx4W9FYQwz3mJ65ZVX7CdMmo9JFxJQqLhLgLtdxGmT994W3ElZ9yBcVepRvM76fMua0/XySXvOeKHOtHfw4MG1KLhZVkFu7UbpRJn0MwwG85l53Qw1iifCsms3fS1Cu+/zxt1IYHRjK1GRuuECxjxEQ+tz2y0eRdJXHSceSwiYPs597caqyvqJ4q2dhBsjxDp4xhlnGA+B9Q2miXXP+4lw9mzmKIIxhMLP5yTtSdsniOf8BW8+Ix6CLjwLRB4x4VIFucDBPWtdvF5k8RjEbzd5uxHUnNxzwX8nr/FccDyZC4xj5ogLL8l0Vf+uYl+Jx36R+jeDZ5F8G4nTyJiN8+WIAt4jpMfyh8IZIQSCL6uSKhM48H904twF2hVcjFioneHzcGfW+e2LnIf51QUUwpFG+UMDgZTtG77HTbt6GUkBIxmXSYaWElMpG14RwsrihE9nsn5+BsXj9IWrm1BjPGLsCXfM4zh5dWcRc4bEyyCNY8LbZVjMsVQhYLAAkj/3WDecEXZrS1Z5LqTWixP3C9pFJ28n7SsyLuJ82tm/MO8+VzCBQ5yLQIBA8+5WoTwGwBko0jNnGiGEGaeYOYox8XCuru3nPo5TD3/iOXn8eNx4mF/jfHxc+jj1OGVdfWzk5fevf/3LosDcYmUAb7e04YLFmkdd77vvvrysav0TL/xYSupRvM46bo4LaXysc+/h3MdzJ74nzCkeN/E9jF0V5P0Y17nVcny8F8GTcuN2Oi4xnvH483DqWO8+rn+ct997m+N4vXUfjyXcLDjLg3KBfZA+HzhwoL1iFz//dhJCwJ/+9CdTttBHKF5wm8XdDaYpxt73GYRlmGMUl3F4vXp7P8Rjz/s6uQ6ADeRXz9PjxePFw3r76nWN1+esOtWbCz5uSev4ZOVTRZjvE8k6eN95X3rZHj9e/zzMr/HY92dZ10bxzMqr2TBvp7ebfLxPfCym5Q0fzhlWFK7wW1nKyrT0rTyrTOCIK+XmL5hMzDfu1uJx0OQ5aO6qgxSLVpGDX9z7AV8WEM578MfhNzThuGvkESZmiMXHzfMcUPROIwxLiQ9O3BnwE8zKG6EEiuuP9sPrB9NB/dwMb5H7yD+0iBB4uFub48JzzJiupcX64OdkwIU+8UOwxIUefPDBmoBGGBuUl0E4ZnlwYaCjGSKMTYHNjHEBYcaGeO7aa3tQ5x/MN0QbXNuPGwT1w5IW94u7QGBNcwYOLV6RcRHn0+7+dTccFgcI64G7t7hm7x//+IeFVfGPfvC5yaFDtOgcWHfBMKvMGLd6+McCDVY1CCa9HrmFDEYDLSeE1acK8rHBGuHuPoyvJAPj7myMK/7QhjN/YDz8/A3CYxEFBq4PEC4arJVYWF3YzGujz7esOe0bJWsq8RCG3A0rmT997GMMpZGT4+K/y7q6YsYFaerHWTDmM2t1M9QKnmjzISwvrg0eNGiQPUOQYZ1qBE+YZD8f466j7dzsreIF/+FGidWatQVrMWu3j1+3+ntWsTDnz8q8Uh59gNUAtyD2EojxwXrk/URfYHmnrpwdRMBnX8rbJ8jL+Yt47PncdesW8bLI5wX18r00yWNkpS8rzDXfZeVHPs7DwAuwh0JrrLGGXdv9r4p9JasNVeCZVV5WWDzXGh2z3g54bPY0hBNc43CXZy1rB/U8MV1RiWganEFgsfCGx8VhvsQkiXWBhRltKhOXRQStOG9qwTcTN59TTz3VNnPfKIv4EiI4sEkgUMDYsogmJV5nfKkXLlFsBl5GXFc6B8YC/1AOurPA4TbGYVzM/xzIhUEnDsyau5PEefT2PZorbwcDDkxcqGAgY/pHMGBjpB+w/OAK4Fru5BtiWNjZnHBFg4nB9QoNlJfB4X8Wbl6hCO4wYG6SxQULv1zSQe6zmYcRjDcWALT99AF5wiQxmdzqRb+zcbJpYW4nrk823LlInzcuqEdv9S8uLdSfPmCBYLFFo8484RlMLdhXSXwQE39R+h6cIcY15edRHv4wmZ4X8wmG3sdBWt5YEXhrCH3IHxS/6S4tTbPPGOM+NlgvcPFMrhnkzTqB4ORzg7eF0Sba5kqJ5HypVyfcQehbMAAL/sirCBWZ0wiwMJMoBGDgGD9Z2jDcaRh33m7WhqJa0iJ1juPQj+AMZoOHunAxvnyDdbeaOH6R+1bwZP1beuj5QOrBnsP6x5oO+dm+RvBk78F9Acx97lQ9d4tglBaHdvqBdtxI0QAzZiBn4BnnnL3kOW89wkXZXcXS8mz2GS5Rg34R9FjXfUyQH2shQhz9xJxBCckYRRnB+kA/+TqftU+wB7EH4lqCopO0Xo67eefVvwiPkZdHs+F+nob0vNmJfQNhvSzClRCXOnDhxRRYOrLWjbLKrZdP2ftKspyq8UyWl/c7ba4VGbNp7fBzuKzpjBEshr6u5dWj1fB8jqGBElhI0whmFcaTwQrDCTPrph9Pg+YbTQWbK0wjCzJpOLwNAa77b6PtQBAgLq43rmFMK9ufsUlShruoADYbtNeDeCyqbHrUicWJjQ8GL0m8lo10tMf9s3lbFkwFaWkjHYiwxORs1FyXLK+K32DHFyRdSnaNNdpiZyrRalB/2gFeMFS0Dy178vAsdWRx9w0UaxELlJdBf8Iskg9l+qF60rFJxUxV0S++k4a6umbUX91LvXktLsSVxYm41N/HFVY20hUZF+TTW/2Lls7niFt9sJr5M4R5x86fJa/UP0keJ/k87TdnCDiUj1IAbNE447oAeT5+TabPw5/48VkqmAYWVydvm/9mI4WYe2x6CPNFBVTPo+gVjS4HJOM1A4bHNb1xPu7vzTP373VLFM+KrFHEg6nlgDI+tvQ3zN3JJ59MkBFtroc1WPl8I3LanKbvfM4zFxCocBOEkljznLjMWQhXPl+P7UHJ/1hTcLFkbWUThOHjnk2RPSOmZF3jsPi+FTxRZDF+yQPmijUd/FnjnJlrBE9cHxk74E4fsv9wJqEdlDZmwDDtOfVhDtIXxGGPQ9FHXBh8V6DBhHq/0FdpisQy2oaQ5m6jnF3jTAXjAsGANZx5wvpMPzFu2GdYH1j3Yb5pQ94+gUKTfYf+YQ2iPcwNBCnWnHo4efsoo+he4mnKvKJsY/+lnoxVt0JklRH3v7fPr8l04M85B1/7GMPuSpqMW/Zvr5Nfyb+MfSXOL1nnZvFM5lPW77S5ljdmKTutHShSXhu6j0Pw0azvzkNlYWIJWvw3YOjATJcSfsmYQYbWvgxCg06DYjeKtHw5oMRGV8/czMLGpMLyAXFmAE1gFlGmf4eCjZjFhAUqjZhMCDUxM1cvHs+ZuDFRf07909lVUtG+YQHFFYXvoEC8KcU3Cn77AsUGm2wL4RCbLQy9M73/fVr8P2UMHOoDjJUDASYmLFowMmwS9Cnf/cAFJ+9lAGzYrn0if3BHQIQpSCO0XoyrZPkeN29ceLxW+rdon3lZVV6LYozFDmENQQfhgPnG20PoLxY9tNFFKAt/5hyMAuMyOe/pF/9WAAIAjDzzMx7DRconTrP441LDuGHNQGuOVhflhH/TIK98GCFcNPMIFyDcMdjYedMMawjfgQBzxrVrnfPyyZvTtAelStp8BmMYTPBlrWDdZl1AAdQoNYs3azxlsganUdE1n40V149W8USLjptbGl7ULwtPmFYYWBQrCBhs8mzw9daptPb6s2bx9PTNXGHwmev12k6ejLdG2tNMO3yNQIHnDFKyPexTrA14K6TtZUX2CdKTtl4ZyTLTfhfdS9LS8qwZfDyvRvvC0xW9MjdRRjTS33HerbQtzsfvm91XPH3etQo8W8EgrT5FxmwyHXwh86XeGpuHS1p4Xrva4lLlFSuq6U+zKngeXJOMBv7tSb/SOD73aERc4MgTBFhskmUk8+N32oLG87z6E6edxOtfXdhgcCXbxsKRV2eYjWYYDm8nZfiZEH/GFVcrGE0IYdQ1frw2F21WFuGH7gIH+bsbVb00ea53eePC883DyuP19WtRjNm8cfPh/fPx91dgwP01x0XamoU/c8m1Lnl5FZ2fefk0Eo52vxVCYMtbo8gfIQbmFeaKN4jE1Ii7St6cpj1F21R03Y7r2up9co1K5ld0zedlJbjitoonQnBSEI7r1AiebmGK0/fl+yJnGBhvVVORNSJvnyqyT5TBgBXdS6rArOq+yJubVbQpK8+y9pV6ZVSNZ71y6z1Pq0+RMZtMx/5dT/lar+xWn7dV4Gi1svXS40eLtjuL8qwqWWk7PYwNA7893vYBQ9OXCK0Z2l8WMUzkzsxzANbNt/Xq64f06oXreTYCRTFGa4FJnfM8aHmZS8w53EnasWDhquCHf939J7tl1YZi6QEHd/MoUhrMat4aRT64NPLBMt6P7i6IzF/80P3cQJHyWonDuECjTR/3VSq65sP49QU8sWpoveqro0n1EgJCoB0IdIXAAQPAnygdAfzA/aBfeozee8qHxdKIb4LE3wVJi6NnrSHQCMb4kPLXG4RQE5/56Y06xGUmLQ9xWL17NK/Jt/PVi8vzZsrIyq+RMM7FFXktdSN5lh23kTUfoaM38ay3xpWNifITAkJACPRlBEo9NN6XG6q6CQEhIASEgBAQAkJACAgBIdB+BCRwtB9zlSgEhIAQEAJCQAgIASEgBPoNAhI4+k1Xq6FCQAgIASEgBISAEBACQqD9CEjgaD/mKlEICAEhIASEgBAQAkJACPQbBAp9h6PfoKGGCgEhIASEgBAQAkJACAgBIdAwAlnf7Sv0lqqsDBqujRKUhkDeR1ZKK0gZlYaA+qw0KJvKSPg3BVvTiYR309ClJuwWPLulHamdVMLDbsanm9tWtOu7FQPalUVyqcpCR2FCQAgIASEgBISAEBACQkAItISABI6W4FNiISAEhIAQEAJCQAgIASEgBLIQkMCRhY7ChIAQEAJCQAgIASEgBISAEGgJAQkcLcGnxEJACAgBISAEhIAQEAJCQAhkISCBIwsdhQkBISAEhIAQEAJCQAgIASHQEgISOFqCT4mFgBAQAkJACAgBISAEhIAQyEJAAkcWOgoTAkJACAgBISAEhIAQEAJCoCUECn2Ho9ESJp988rD00kuHqaaaKjz77LPh5ptvDl9//XWPbCaccMLw61//Ogw//PDh+uuvD2+//XaP8DHGGCMsu+yyYdZZZw3vvPNOuPXWW8O7777bI84cc8wRFl100TDWWGOFRx55JNx55509wrN+DDfccGHxxRcPCy+8sKW96667wk8//WRJVl555TDSSCMNk/znn38O11xzzTDP0x7MMsssYcUVV7R23XjjjeGLL74YJtpcc81lbQSbe+65Jzz99NPDxCnzAfWZb775auVQpyFDhoT333+/Vszss89u/XbTTTfVnvkNWIPbvffeGxZaaCHD/fbbb/fgMOKII4ZVVlklPPfcc9bvHjDttNMG2krcNBw8nq7pCEw66aQ2zrm+8MILNla++eab9Mh6WjoCRdaz0gvtxxkutdRStk4xxlkXn3zyyX6MRutNH3vssW0/Zi9mbXbqtHGdt9+zN7FHsYexz/zrX/8KL730kje3q6++9yYb+cknn4S77747+bjjfmfxax3XmBYqvMgiiwR452uvvbZHLmOOOWZYYYUVwowzzmg8AuHff/99jzjwpPBto4wySnj88cfD/fff3yO8HT9KFzjmn3/+sOuuu4YBAwaE7777Lsw555zGhO6yyy7hs88+szYhSGy55ZYBBh5ig7nsssvC1Vdfbb8nmGCCcNxxxxkwbDrkAZhHHnmkMchE2njjjcNKK60UfvzxRxMUYKSXWWaZsPfee1seWf8YvGeccUZgIf7hhx/CvPPOGzbccEOrE520wQYbmCCUlkcRgWOPPfawDRMBhg5eY401wp577hlef/31WpYnnXRSmGSSSWpCzpJLLhluuOGGcNFFF9XilH0DZvQLC3dMDLwTTjjBHv32t78NM800U0gTOH73u9/VBI7ll1/eFva///3v4dtvv7W0CG/rrrtu+OCDD8L2229fK2KTTTaxiUD7RI0hAM6bbbaZJWKsL7bYYmG99dYLjLFYUGwsV8UuikCR9axoXoqXjQDrMmv81FNPbXvHCCOMYEohNs9LLrkkO7FCUxFgvdhuu+1sP3vggQdqAkenjeu8/R4m6thjjzVmjD0dRSbKL5SdgwcPTsWmmx5OOeWUtvcm2/Tll192vMCRx68l29yNvxnf++23X5h++umtebHAwVzefffd7Tn8K8pdxj48NwIntNtuu4UFFljA+E34bnhuFPikSwomlqCif6W7VG2zzTa2WWyxxRZho402Cuecc04YffTRw1prrWVNwHIBA4XwQRyY0Q8//DCsvfbaYaKJJrI4hI888sjhwAMPNMECsKBNN93UroCPsPHqq6+G9ddf34SFJ554Ikw33XTGLFukjH9bb721CRsXXHCBCRennHJKGHXUUa2DSEaefF09/mPifv755xm5/jeIzkf4QSuH4LLDDjtYJ++zzz61tLQDYePKK6+0OOAEk45lBWtNVYRgwCDzdh122GHWDwgKjn3Rsv/5z39a1AUXXLCWBIsRhMDIIuEEA/Hxxx+3dWB72Z1+ZWz85z//sTnDeEIwZKyuueaand60jqh/3nrWEY3okEouscQSJmygeEK5wdhnzV111VU7pAV9q5oo9dh/WHuT1Enjush+/5vf/MaEjXPPPdf2VNbKjz76yBSV8V6UxKFbfsNPQNtuu21tf2efd2VVJ7czj1/r5LYVqTv81Nlnn238bZIHhZ/eeeedA/wpSl4U5yiz4RGY/xCWTIQNvCNQVsLfovzFYwKFZjvpf1xhCaUysbFqxC5EuNGg6cetBho0aJBpH1gYMHtiwQAg0nrjcWd66qmnam45b731li0e448/vuUxzTTTGKOMwOCEWxaENSSPYLBZhF2Lj4sQbltIhmmEIIDQdPHFF6cF93iGZEl7jz/+eLuihb7jjjtMwIHxhsAAAeOqq66yOEiYWGZgJsGvXYSQ5m5oLjkXLfsf//iHRcWC44Q5D/cwrChgDCFAsWHILcJRKn7FAocLxMknnxy++uorS4g1Cg2FbzDFc1PMRhEosp41mqfi10cApQdM4hVXXGGRWBcffvhh2xsaVYjUL6X/hOBCgatwbG2m9Z02rovs9+w7uA7ddttt1sFYg+EhaCvuJt1OPj/ShMtOb3uj/FqntzdZf/Z61kK8ZHCLjAmvHtzp4B3hKSGUwSjr//rXv9pv5705luD0l7/8xW459tBOGqHMwmC0Md/GhADApH/llVfsMYsH9NBDD9mVf0hepB04cKA9O/TQQ+3q/5DWxhtvvJoLCaBvtdVWHmxXfNugIowt1hMWo5ief/75MNlkk5llxV2EPBzrCxYZFrQ8YuIjhTqDSPwHH3zQNC24Kr355pvGgGPe3muvvcxEhgkYn7ozzzzTcMgro4xw+gTXquWWW87cyh599NGGsgWjTz/91FylSEj/0E9YbdA2Ycpn4LvVg41P1BgCjLl4Low22mgBbQ8CXXx2prFcFbsoAkXWs6J5KV4+AggaLmx47Nlmm62muPFnuhZDAKt68uwkKTttXBfZ790d25HhHAc8AS4l7srtYd14RQsOH4HlCm02+/Njjz0WUOzS351MjfJrndzWtLrDm2KtQIhOEsIE/YtiF08dhGvOQ19++eU14eS+++6zcYHFmPmANQQ+AnKlezLfqn6XKnAkKwkI7iPm1ogpppjCJkZyEqDZn3jiiZNZ2O9DDjnErCKnn356avjcc88dBg21GnBGIj4UlxYZMxIMW/IAOlYUaIYZZughjKy++uomIOAaVoRoczLv1157zZIyOPC1hHAfYIF48cUXzRRM/RG4kGKrIiYu7ee8DBhAaMtpW3wIGWGEOEkiTbx4I9whWCBh85IACA0TCx7CFYR7GROFSSNqDgH6DA2G9xmWNrcwNZejUjWDQNp61kw+SlMMAfz2UeBcd911xRIoVg8E0oSNHhF++dFp4zprv0dBwx4OwVy5O/YvTe3aCwo/zjyxH7/88ssBbxDOysJTxO7cnQZAo/xap7WvSH2zzligJIdf23HHHY3vhNdk/KPMPvzwwwNeLPDa3HMGZP/9968ViQUkPldcC6jwpjKBA+aWQ1xMggMOOKDmvw9jC0BJ4lnSskAcXI1g0mGA05hWJhRMOlIb5TjhpsUkjGmnnXaqvSUJN5+Y0M5D8VuUqBO+8jDZuF05kQ9nNWKCCcRkBXMNAx4TmmmIDcDDYB7xr/VDPSwKWIOYYEmBJc6rlXsEHMp3LSKbOQfmXXr+29/+ZtkjhMTmNy/ThQr/jcUHCwZCBWc5wInzBkjU+NDiEkT/uDDn6XRtDAHOOP35z382gZxxh58miwiui6L2IFBvPWtP6f2vFN6oxzk91nzGvqgaBDptXNfb7x0d+AQYLtyjUXqdeOKJdlbUw7v1+u9//9uYRxhKVx7CO4ED1g/2kE4k58eK8Gud2L5W68zLESDe5nfaaafZPTwkLv2c1fCzzfvuu6/x4MRjfMC34YmCC147vSUqEThg1HnLFJoTNLO4TDnhUjTzzDMP47oEI8w5iphwz2LCAEjSZEo8GGY0GjDSCB2xRgeg/cyH54kVhQEMs0anxISkCL3xxhu1xwgbLMgc2IkJKwrPY/K6I0AkfUbdjQxrBgfdIergwga/YR4RODgTUeRNWKRplBCGWHjct4/09BVvxmLwxQLH+eefP0z21I34Tril0Q58LLFc8RpCCPcpBA7Os3D2hTeFiJpHAA2Hn1HCGoVwi+VNAkfzmDaSMms9ayQfxS2GAK825WUirKn4IouqQaDTxnXWfu8IsSfxB7+AKzR7OMxVrDD0uN10dQ+SuE3sGfBPKAPb7ToT16OVe9zTi/JrrZTTqWkRNDkUHvN0KKw5C+c8LbwYcx1+2g+d89Y/eDxe5tTxAgevNkSqPvXUUwNnFWJCY8W5ARYCf9Uhh7LR+MOQOwESr4ploUhzZ0KYOeaYYyw6bltJCR7fxXoE6Gg/kA7dL26eeeYxyY/BDdFBMHVJ6wZhaP/TLACE4T+HFpo3ZmHahH71q1/ZFV9UysOSkzSTceAaijGwBxX/Q3Cire6u02hx3l6w5HA8hFAHbmgpIT+Ybj/0rzACCHJYwZhP8dkkxjrzS9QeBLLWs/bUoP+UAoPEmOcAJO4wvh73HwTa19JOGtd5+72/cCV2SWbNhM9wN+b2Idv+knCZQbmH94WTKzqdD/HnnXYtwq91WpvKqi/KfLxUOOv23nvvWbbwc+OMM44JHTzAewevlfhcMesqivq0782VVbe0fEq3cOAnxtuYAAILAx/3gzhgjAsOAoRrv2FKaTSv6oJJdY0tr0FcbbXVbLPBHcfzIB/8eQEJkxFmNrTp/kYkwvnQT/JAOM9jQhuAzxtnQ3Avoiw6ZfDgwbVofE8Cq0ua5qAWKeUGQYcBgA8dghLmXT5eyOLnFg20L+R/8MEHh0svvdQOXvOtDiwwVX78j4HIGw8Q8CDeUICgxfOkYJjStNRHfHCR/qEf4zcocAgegRGrUze+OSMVjJIfgi19g0DNOGEu4NaGdS4WQEouVtlFCOStZ1FU3baIAEqaP/7xj6b8wPQfvw6Xt7P5htpiMUo+FIFOGtfs83n7PfzGoEGDzNMBZeC4445rr1ams2+55Zau73N4HhSk8B28uIW5BF8FT5Hmit5JgBTh1zqpPWXWle9xwH9tvvnmdnwBBTCHw+Fd/ZwnCl/c5nnbJYfJUXajDOaVuv55gzLrlJVX6QIHkhaExt619vzmjAUCB4Qb1EEHHWTA8Juwo48+uqbNwncXgtli0sTE4sHbldxtCQYsJjepxs+S95wxQCjgLRZMUKQ/mLvY9Yc6IBARtxGCuT7vvPPs+yF8eAXi1bhujeE3AgdmMEy97jKAwIWfXZXEIMSSwYB0wp+Pg97+wUGwqEdpYQxmBvxrQw8rxUSeCBztttjEdej0exYGziXBhOFiAtEHuPQdccQR9lv/qkWgyHpWbQ36T+64YLLmQ3yANCaswvH6HIfpvnEEOmlcF9nveaEMZyV5YQl7O8SYOeqoo/qFwgtvEXgKvCs4VA/BV3XygXFrxNB/Rfg1j9vt1yQPhqUCxTnndfybK8SB10bwhPA8wULImupvkSUdb0/lrHM7acBQ3/v6HObQmiAR8QGZKogJwgbDuY7eINyAeH3eM888M4yLUxn14awK/nQILmmEVYWFH2Y96RKWFj/5rMq+SZal3+Ug0GyfsZniw8wZI7mZNN8XzeLffIn9O6XwLrf/uwXPKtuBCxV7Li8w6VRqFh+UivAUnH9C0dkXqdm2Vc2vtROrZjHIqiOeRbyoB6V7PR4BV2zc6LGEVEF57SrdwtFII6pqdNE6cJ5iyJAhRaM3HC/vFb24G/FhK5EQyEMA/0sEU5EQEAJCQAjUR6C3FJj1a9S+EKziuDN3I1XNr3U6ZkVecduMYrtMXP73yqEyc1VeQkAICAEhIASEgBAQAkJACAiBoQhI4NAwEAJCQAgIASEgBISAEBACQqAyBCRwVAatMhYCQkAICAEhIASEgBAQAkJAAofGgBAQAkJACAgBISAEhIAQEAKVISCBozJolbEQEAJCQAgIASEgBISAEBACEjg0BoSAEBACQkAICAEhIASEgBCoDIFC3+GorHRlLASEgBAQAkJACAgBISAEhEDHI5D13b5C3+HIyqDj0engBuR9ZKWDm9a1VVef9W7XCv/24i+8y8W7W/DslnaU27v/y62b8enmtv2vB7PvuhUD2pVFcqnKQkdhQkAICAEhIASEgBAQAkJACLSEgASOluBTYiEgBISAEBACQkAICAEhIASyEJDAkYWOwoSAEBACQkAICAEhIASEgBBoCQEJHC3Bp8RCQAgIASEgBISAEBACQkAIZCEggSMLHYUJASEgBISAEBACQkAICAEh0BICEjhagk+JhYAQEAJCQAgIASEgBISAEMhCQAJHFjoKEwJCQAgIASEgBISAEBACQqAlBAp9h6PREiaffPKw9NJLh6mmmio8++yz4eabbw5ff/11j2wmnHDC8Otf/zoMP/zw4frrrw9vv/12j/AxxhgjLLvssmHWWWcN77zzTrj11lvDu+++2yPOHHPMERZddNEw1lhjhUceeSTceeedPcKzfgw33HBh8cUXDwsvvLClveuuu8JPP/1kSVZeeeUw0kgjDZP8559/Dtdcc80wz9MezDLLLGHFFVe0dt14443hiy++GCbaXHPNZW0Em3vuuSc8/fTTw8Qp88GgQYPCuOOOO0yWL7/8cnjiiSdCvXBwv//++8NEE01keN9+++2p7RkmYz0oFQHH/8svvwy33XZbqXkrs2wEFllkkcCade2112ZHVGjLCIw99ti2f7B3PPfccy3n198zyNtrOwWfUUcd1fbU6aabzvgB9ixRTwSK8B09U3TGryx+rTNa0HotuwGD0gWO+eefP+y6665hwIAB4bvvvgtzzjlnWGWVVcIuu+wSPvvsM0MdQWLLLbcMMPDQUkstFS677LJw9dVX2+8JJpggHHfccWGUUUYJ33zzjeWxwgorhCOPPDIMGTLE4my88cZhpZVWCj/++KMJCvPNN19YZpllwt57723hWf/ouDPOOCOwsf3www9h3nnnDRtuuKHV6fvvvw8bbLCBCUJpeRQROPbYY49AfRBgFlpoobDGGmuEPffcM7z++uu1LE866aQwySST1IScJZdcMtxwww3hoosuqsUp+2bTTTc1TJP5PvXUUyZw1At/7733TOBYcMEFw7rrrhueeeaZ8Pzzzyez0e+KETj44INNYGSMSuCoGOxfsmcN2m+//cL0009vTyRwVIv7YostFrbbbjtbfx944AEJHC3CnbfXtph925KjbGHPZO9mz4fPQBg94IAD2laHvl5QEb6jr7chrX55/Fpamm571i0YlO5Stc0225igscUWW4SNNtoonHPOOWH00UcPa621lo0BLBebbbaZCR/E2WSTTcKHH34Y1l57bdOgE4nwkUceORx44IEBwWK33XaztDDEEEwAwsarr74a1l9/fRMW0Hag+ZhpppksTta/rbfe2oSNCy64wISLU045JaA9QSiCyJOvq8d/aJU///zzrGwtjIUQYePJJ5+0vHfYYQcTKvbZZ59aWtqBsHHllVdaHHD64IMPApYVrDVVEtaKuF3cH3LIIbUi08J32mmnWrhuegcBBGKsU0lLYe/Upn+UiuLj7LPPtnWlyNzvH6hU10qUUKyXH3/8cXWF9KOci+y1nQLH/vvvb1WFqWYtRBideeaZzSrfKW2osp5F+I4qy68y7zx+rcqy+0re3YJBqQIHUhhWjdiFCPcbNP3TTjut9d2goW49uFGde+655paDBcM1F8svv7zFwZ0JrTsmdeitt94KH330URh//PHt9zTTTGMCCwKDE25ZEBaVPMKNik3tpptusqj33nuvuW3h4pRGCAIITRdffHFacI9nWHNo7/HHH2/X999/P9xxxx0m4Ew99dQWFwwQMK666iqLg8Yay8wJJ5xg+PXIUD/6PQK4RDAGX3jhhfDmm2/2ezzaBQBKAeYm1klfi9pVdn8sB3cQXFu33377/tj80ttcZK8tvdAKMkRwYg3ErRcvAfbXk08+2SwdrIuiYF4keXxHp+LUKL/Wqe3Mqne3YFCqSxUDHnN4TAgACCKvvPKKPUZYgB566CG78g9GirQDBw60Z4ceeqhd/R/Wh/HGGy/AvENs/ltttZUH2xUfawjLQh5hPUGgiQkXockmm8wsK99++20cZNYX3MHuvvvuHs/TfmD6RRv61Vdf1YIffPDBgEsY1hcYRiw0aGj22msvc9XArevxxx8PZ555puFQS6gbITAUAcYJ7odHHXWUMb8CpT0IsCagdceFQ1Q9AliBZcErD+cie215pVWXE5YM6NFHH60VgiIAJSR8gSiYd0gW3xG7c3caXo3ya53WviL17RYMShU4ksDhHrT77rubltCtEVNMMYWdm0DAiAnLyMQTTxw/qt3j8oNV5PTTT689i2/mnnvugDaHSZV3yHDSSSe18yXJA+hYUaAZZpihhzCy+uqrm4CAa1gRos3JvF977TVLipVnyimntPsllljCcHjxxRdNe0P9EbjQplZJYHzqqaf2KALXNSwuEPhceumlPcJvueWW4P3XI0A/KkeAc0m8hOHCCy/UQf3K0e5ZAEyNqH0ISNgoF+tm9tpya1BObn5+6o033uiRIQIHbo+iYK7YWXxHp2LUKL/Wqe3Mqnc3YVCZwIFEduyxx4YRRhjBDnb55o0LFRaPJPEsaVkgDq5GMOkcKk87qOxMOmcs4gNkuGkltR+cRfC3RWFliAkrCuTh3FOnNddc09y3cLtyIh98JmPC3Yo3aaENHXHEEeOgMNpoo9lvNlQP41A9/sqffPKJhaHdwxrE4EouHD0ya/EHmvK4jWRHXZzoH9waYsJCI2o/AowVzvsgDOKmKBICQkAIFEWg0b22aL7tjufeAr5He/m4XvuLZ/xZf73m8R2diovzKkX4tU5tY169uwmDSgQOGHXeMoW2n3MJuEw54VKEiRSBJBYwYK54/W1MuGdxroJzIP4Gqzgc9yXcr3BJwjIQa8g4RO5nPjwNVhQ6D+sKjH1MuFNBsRYFYYN6cnA0JqwoPI/J644AMeaYY8ZBwU3bWDM46A5RBxc2+A1DicDBW62KvAmLNM0QbmlZVhTqJGtGM8iWn2bzzTc3AZWxxQsWIMYt1j5cfXhTVSebystHTDkKASHgCDSy13qavnh1/oEzkLEHAy/R0Msc/ttjeXxHX+zXInWif4vya0Xy68Q43YRBJQIHr6/F1InrDmcVYsJKsdxyy5nl4JJLLrEgDn6hZYchd+LVtLwqFstCmjsTwswxxxxj0XHb4k1XMXEovR7RgZyngHFz/+x55pnHXsHrrl4ITbhTcXYjtm6QJ5YM/tKI74lg/eCNWXzfAvrVr35lV86eUB6Cllt8LGDovxlnnNFuYww8TNf+iQAaPcYj35txYlxCfOeGjVgChyOjqxAQAjECRffaOE1fvPd9lDXP911e6IDAkeb10BfbUHWd8viOqsuvMv8i/FqV5feFvLsFg9IFDt5ZjyYCZggLAx/3gz799FM7dA3zjjDB25xg5rFOrLfeemZ5cLeRVVddNay22mrGbHG2wvMgn+uuu84+ysdboDCz4f7DCX6nl156qccZDH8eX9Hg77jjjvY62CuuuMLKgrkbPHhwLRrfm8Dq0qi2H0GH73pw0BdBiTMhfLyQw+xu0cBaQ/58V4HzEggbfKsDC0zVH/+rNbDODdaZGG+i0QcPP/xwLQXnT3ijTEz0iwtr8XPdN48A1sEkHXbYYTa/eDWkSAgIASFQD4Eie229tH3pOco53lDFPo9llxes8Op86KyzzupLVe21uhThO3qtci0WXIRfa7GIPp+8WzAoXeCYbbbZrPNgol1rzwPOWPhbnnCDOuigg+w7HR529NFH1xhWvrEBoc1FGImJA8xofN1tCa1HTLx9KvkGqjic+/vuu8+EAt5s5W8A4kvlfBHdiTogEBG3EeJ1u+edd559P8S/64Ebk1tjyAuBg4PAfOmcA9sQrl777ruv3Vf5L8/nlVcQJjGn/ggcnpaPSSUJzVPs0pYM1+9yEPA+KCc35VIUAeFeFCnF60sI5O21famuWXX505/+ZGc52Xv4Q1GJsg7NvijYa/7z+I5OxakIv9apbSta727BYMDQN1n893PfdVp++eWX24fi6gS39BimG6Git74tgEvV7LPPbl/OTro4tdSwXxJzVoUD4AguaYRVBQHttaFvsUq6hKXFTz6rsm+SZel3OQioz8rBsdlchH+zyDWXTng3h1u9VM3i2dt7bbI9zbYDhRgeFL3tCZBsT9m/m8WHeuTxHWXXtdH8mm1b1fxao+1oJX63YpDXrtItHI10Qm9rJzhPMWTIkEaq3FDc+IBbWkIsArGrUlocPRMCQkAICAEh0AoCvb3XtlL3OC2eAN0ubMTtbeY+j+9oJs++kKZqfq0vtDGvDp2OwbDvp81rscKFgBAQAkJACAgBISAEhIAQEAIFEZDAURAoRRMCQkAICAEhIASEgBAQAkKgcQQkcDSOmVIIASEgBISAEBACQkAICAEhUBABCRwFgVI0ISAEhIAQEAJCQAgIASEgBBpHQAJH45gphRAQAkJACAgBISAEhIAQEAIFEZDAURAoRRMCQkAICAEhIASEgBAQAkKgcQQKfYej8WyVQggIASEgBISAEBACQkAICIH+gsA666xTt6m5AkfdlAoQAkJACAgBISAEhIAQEAJCQAjkICCXqhyAFCwEhIAQEAJCQAgIASEgBIRA8whI4GgeO6UUAkJACAgBISAEhIAQEAJCIAcBCRw5AClYCAgBISAEhIAQEAJCQAgIgeYRkMDRPHZKKQSEgBAQAkJACAgBISAEhEAOAhI4cgBSsBAQAkJACAgBISAEhIAQEALNIyCBo3nslFIICAEhIASEgBAQAkJACAiBHAT+H6pIR3FkZ1vDAAAAAElFTkSuQmCC;" vertex="1" parent="1">
          <mxGeometry x="170" y="750" width="551.65" height="70" as="geometry" />
        </mxCell>
      </root>
    </mxGraphModel>
  </diagram>
</mxfile>
